<?xml version="1.0" encoding="UTF-8"?>
<svg xmlns="http://www.w3.org/2000/svg" viewBox="0 0 226.58 85.42">
  <defs>
    <style>
      .cls-1 {
        fill: #068971;
      }

      .cls-2, .cls-3 {
        mix-blend-mode: multiply;
      }

      .cls-2, .cls-4 {
        fill: #41a6a5;
      }

      .cls-5 {
        fill: #898989;
        font-family: H2hdrM, HYHeadLine-Medium;
        font-size: 19.35px;
        letter-spacing: -.05em;
      }

      .cls-6 {
        fill: #1f524c;
      }

      .cls-7 {
        fill: #124a41;
      }

      .cls-8 {
        isolation: isolate;
      }

      .cls-9 {
        fill: #65605e;
      }

      .cls-10, .cls-3 {
        fill: #92b878;
      }

      .cls-11 {
        fill: #27477d;
      }

      .cls-12 {
        fill: #008b5e;
      }

      .cls-13 {
        fill: #aabc9e;
      }

      .cls-14 {
        fill: #3c5441;
      }

      .cls-15 {
        fill: #084c3d;
      }
    </style>
  </defs>
  <g class="cls-8">
    <g id="_레이어_2" data-name="레이어 2">
      <g id="_레이어_1-2" data-name="레이어 1">
        <g>
          <text class="cls-5" transform="translate(115.33 34.88) scale(1 .9)"><span x="0" y="0">넥스트리온</span></text>
          <g>
            <path class="cls-4" d="M25.45,76.46c.14-.13.3-.16.48-.07.18.08.27.22.27.42v4.9c-1.04,1.16-2.6,2.03-4.67,2.62-2.08.59-4.37.89-6.87.89-2.15,0-4.13-.33-5.93-.99-1.81-.66-3.36-1.62-4.64-2.87-1.29-1.25-2.29-2.77-3.01-4.55-.72-1.78-1.07-3.81-1.07-6.09s.36-4.17,1.07-5.97c.72-1.8,1.71-3.35,2.98-4.65,1.27-1.3,2.79-2.32,4.56-3.04,1.77-.73,3.73-1.09,5.88-1.09,4.29,0,7.56,1.22,9.8,3.66,2.24,2.44,3.36,5.91,3.36,10.4v1.98H6.55v.15c.18,2.74,1.06,4.79,2.63,6.14,1.57,1.35,3.65,2.03,6.23,2.03,1.93,0,3.75-.36,5.45-1.06,1.7-.71,3.23-1.64,4.59-2.8ZM6.93,67.3h13.8v-.15c0-2.15-.56-3.78-1.66-4.9-1.11-1.12-2.65-1.68-4.62-1.68-1.83,0-3.43.59-4.8,1.78-1.38,1.19-2.28,2.82-2.71,4.9v.05Z"/>
            <path class="cls-11" d="M67.67,62.5c-.61-.46-1.2-.78-1.77-.97-.57-.18-1.36-.27-2.36-.27-.75,0-1.5.18-2.25.54-.75.36-1.42.89-2.01,1.58s-1.07,1.54-1.45,2.55c-.38,1.01-.56,2.15-.56,3.44v15.25h-6.66v-28.02h6.5l.16,2.92c.72-.89,1.66-1.7,2.85-2.43,1.18-.73,2.45-1.09,3.81-1.09.86,0,1.66.06,2.42.17.75.12,1.45.37,2.09.77v5.25c0,.2-.09.33-.27.4-.18.07-.34.03-.48-.1Z"/>
            <path class="cls-11" d="M93.25,76.46c.14-.13.29-.16.47-.07.17.08.26.22.26.42v4.9c-1,1.16-2.51,2.03-4.52,2.62-2.01.59-4.22.89-6.65.89-2.08,0-3.99-.33-5.74-.99-1.75-.66-3.25-1.62-4.49-2.87-1.25-1.25-2.22-2.77-2.91-4.55-.69-1.78-1.04-3.81-1.04-6.09s.35-4.17,1.04-5.97c.69-1.8,1.65-3.35,2.88-4.65,1.23-1.3,2.7-2.32,4.41-3.04,1.71-.73,3.61-1.09,5.69-1.09,4.15,0,7.31,1.22,9.48,3.66,2.16,2.44,3.24,5.91,3.24,10.4v1.98h-20.41v.15c.17,2.74,1.02,4.79,2.54,6.14,1.52,1.35,3.53,2.03,6.02,2.03,1.87,0,3.63-.36,5.27-1.06,1.64-.71,3.12-1.64,4.44-2.8ZM75.34,67.3h13.34v-.15c0-2.15-.54-3.78-1.61-4.9-1.07-1.12-2.56-1.68-4.47-1.68-1.77,0-3.31.59-4.65,1.78-1.33,1.19-2.21,2.82-2.62,4.9v.05Z"/>
            <path class="cls-11" d="M122.28,76.46c.14-.13.29-.16.47-.07.17.08.26.22.26.42v4.9c-1,1.16-2.51,2.03-4.52,2.62-2.01.59-4.22.89-6.65.89-2.08,0-3.99-.33-5.74-.99-1.75-.66-3.25-1.62-4.49-2.87-1.25-1.25-2.22-2.77-2.91-4.55-.69-1.78-1.04-3.81-1.04-6.09s.35-4.17,1.04-5.97c.69-1.8,1.65-3.35,2.88-4.65,1.23-1.3,2.7-2.32,4.41-3.04,1.71-.73,3.61-1.09,5.69-1.09,4.15,0,7.31,1.22,9.48,3.66,2.16,2.44,3.25,5.91,3.25,10.4v1.98h-20.41v.15c.17,2.74,1.02,4.79,2.54,6.14,1.52,1.35,3.53,2.03,6.02,2.03,1.87,0,3.63-.36,5.27-1.06,1.64-.71,3.12-1.64,4.44-2.8ZM104.36,67.3h13.34v-.15c0-2.15-.54-3.78-1.61-4.9-1.07-1.12-2.56-1.68-4.47-1.68-1.77,0-3.31.59-4.65,1.78-1.33,1.19-2.21,2.82-2.62,4.9v.05Z"/>
            <path class="cls-4" d="M151.46,55.07c-1.4-1.25-2.93-2.24-4.59-2.95-1.66-.71-3.48-1.06-5.45-1.06-4.4,0-6.6,1.47-6.6,4.41,0,1.45.49,2.6,1.48,3.44.98.84,2.33,1.59,4.05,2.25l3.7,1.49c3.26,1.32,5.77,2.87,7.54,4.65,1.77,1.78,2.66,3.96,2.66,6.53,0,1.91-.36,3.58-1.07,5-.72,1.42-1.73,2.59-3.03,3.51-1.31.92-2.86,1.61-4.67,2.06-1.81.44-3.8.67-5.99.67-2.36,0-4.55-.28-6.55-.84-2-.56-3.79-1.49-5.37-2.77v-6.44c0-.2.09-.34.27-.42.18-.08.34-.06.48.07.75.79,1.52,1.5,2.31,2.13.79.63,1.63,1.16,2.52,1.58.89.43,1.87.76,2.93.99,1.06.23,2.21.35,3.46.35,2.65,0,4.55-.45,5.72-1.36,1.16-.91,1.75-2.3,1.75-4.18,0-1.45-.54-2.66-1.61-3.64-1.07-.97-2.63-1.87-4.67-2.7l-3.7-1.49c-1.32-.53-2.55-1.12-3.68-1.78-1.13-.66-2.09-1.41-2.9-2.25-.81-.84-1.44-1.81-1.91-2.9-.47-1.09-.7-2.36-.7-3.81,0-1.62.32-3.04.97-4.26.64-1.22,1.56-2.24,2.74-3.05,1.18-.81,2.59-1.43,4.24-1.86,1.65-.43,3.45-.64,5.42-.64.86,0,1.77.05,2.74.15.97.1,1.93.27,2.9.5.97.23,1.91.55,2.82.97.91.41,1.76.93,2.55,1.56v5.74c0,.2-.09.34-.27.42-.18.08-.34.06-.48-.07Z"/>
            <path class="cls-11" d="M170.53,85.07c-2.43,0-4.55-.4-6.34-1.19-1.79-.79-3.27-1.86-4.43-3.19-1.16-1.34-2.02-2.88-2.58-4.63s-.83-3.6-.83-5.55c0-2.05.3-3.95.91-5.72.61-1.77,1.5-3.31,2.68-4.63,1.18-1.32,2.66-2.35,4.43-3.09,1.77-.74,3.82-1.11,6.15-1.11s4.38.37,6.15,1.11c1.77.74,3.25,1.77,4.43,3.09,1.18,1.32,2.08,2.86,2.68,4.63.61,1.77.91,3.67.91,5.72s-.29,3.8-.86,5.55c-.57,1.75-1.44,3.29-2.6,4.63-1.16,1.34-2.63,2.4-4.4,3.19-1.77.79-3.87,1.19-6.31,1.19ZM170.53,80.17c2.43,0,4.26-.77,5.48-2.3,1.22-1.54,1.83-3.99,1.83-7.35s-.6-5.91-1.8-7.43c-1.2-1.52-3.03-2.28-5.5-2.28s-4.26.76-5.48,2.28c-1.22,1.52-1.83,3.99-1.83,7.43s.62,5.82,1.85,7.35c1.23,1.54,3.05,2.3,5.45,2.3Z"/>
            <path class="cls-11" d="M203.39,48.63c-.5-.23-1.04-.42-1.61-.57-.57-.15-1.22-.22-1.93-.22-1.36,0-2.32.38-2.87,1.14-.56.76-.83,2.11-.83,4.06v3.56h6.44v4.7h-6.44v23.32h-6.5v-23.32h-4.94v-4.7h4.94v-4.31c0-6.14,3.26-9.21,9.77-9.21.97,0,1.86.1,2.68.3.82.2,1.48.48,1.99.84v4.01c0,.2-.07.33-.21.4-.14.07-.3.07-.48,0Z"/>
            <path class="cls-11" d="M222.49,78.78c.18-.13.35-.16.51-.1.16.07.24.2.24.4v4.36c-.82.59-1.8,1.03-2.93,1.31-1.13.28-2.3.42-3.52.42-2.68-.03-4.64-.63-5.85-1.81-1.22-1.17-1.83-2.96-1.83-5.37v-16.68h-4.78v-4.7h4.78v-6.53h6.55v6.53h7.41v4.7h-7.41v16.09c0,.96.2,1.65.59,2.08.39.43,1.02.64,1.88.64.93,0,1.74-.12,2.42-.35.68-.23,1.32-.56,1.93-.99Z"/>
            <g>
              <path class="cls-9" d="M33.39,50.54v34.88h9.1v-34.27c-.94.1-1.89.16-2.86.16-2.15,0-4.24-.27-6.24-.77Z"/>
              <path class="cls-10" d="M18.77,40.58h-3.28v-6.25c-.97-2.71-1.51-5.63-1.51-8.68,0-1.79.18-3.53.53-5.21-6.32,2.48-10.8,8.64-10.8,15.84,0,9.4,7.62,17.01,17.01,17.01,3.87,0,7.44-1.29,10.3-3.47-4.97-1.77-9.23-5.03-12.25-9.24Z"/>
              <path class="cls-9" d="M15.49,40.58h3.28c-1.36-1.9-2.47-4-3.28-6.25v6.25Z"/>
              <path class="cls-14" d="M15.49,40.58h3.28c-1.36-1.9-2.47-4-3.28-6.25v6.25Z"/>
              <path class="cls-4" d="M37.51,33.53h8.42c1.84-4.1,5.95-6.96,10.74-6.96,3.22,0,6.14,1.29,8.26,3.39.24-1.4.36-2.84.36-4.31,0-14.17-11.49-25.65-25.65-25.65-12.38,0-22.72,8.77-25.12,20.44,1.92-.76,4.02-1.17,6.21-1.17,8.46,0,15.47,6.17,16.79,14.26Z"/>
              <path class="cls-4" d="M31.02,49.82c.77.28,1.57.52,2.37.72v-2.91c-.72.8-1.51,1.54-2.37,2.19Z"/>
              <path class="cls-4" d="M45.12,40.58h-2.63v10.57c3.03-.34,5.9-1.2,8.52-2.5-3.01-1.65-5.22-4.59-5.89-8.07Z"/>
              <path class="cls-9" d="M45.12,40.58c-.14-.73-.21-1.48-.21-2.24,0-1.71.37-3.34,1.02-4.8h-8.42c.15.9.22,1.81.22,2.75,0,4.36-1.64,8.34-4.34,11.35v2.91c2,.5,4.09.77,6.24.77.97,0,1.92-.06,2.86-.16v-10.57h2.63Z"/>
              <path class="cls-6" d="M45.12,40.58c-.14-.73-.21-1.48-.21-2.24,0-1.71.37-3.34,1.02-4.8h-8.42c.15.9.22,1.81.22,2.75,0,4.36-1.64,8.34-4.34,11.35v2.91c2,.5,4.09.77,6.24.77.97,0,1.92-.06,2.86-.16v-10.57h2.63Z"/>
              <path class="cls-3" d="M33.39,47.64v-7.05h-14.62c3.02,4.21,7.28,7.47,12.25,9.24.86-.65,1.65-1.39,2.37-2.19Z"/>
              <path class="cls-12" d="M33.39,47.64v-7.05h-14.62c3.02,4.21,7.28,7.47,12.25,9.24.86-.65,1.65-1.39,2.37-2.19Z"/>
              <path class="cls-3" d="M15.49,34.33v-.8h22.03c-1.31-8.09-8.33-14.26-16.79-14.26-2.19,0-4.29.42-6.21,1.17-.35,1.68-.53,3.43-.53,5.21,0,3.05.53,5.97,1.51,8.68Z"/>
              <path class="cls-12" d="M15.49,34.33v-.8h22.03c-1.31-8.09-8.33-14.26-16.79-14.26-2.19,0-4.29.42-6.21,1.17-.35,1.68-.53,3.43-.53,5.21,0,3.05.53,5.97,1.51,8.68Z"/>
              <path class="cls-9" d="M15.49,34.33c.81,2.24,1.92,4.34,3.28,6.25h14.62v7.05c2.7-3.01,4.34-6.99,4.34-11.35,0-.94-.08-1.85-.22-2.75H15.49v.8Z"/>
              <path class="cls-3" d="M15.49,34.33c.81,2.24,1.92,4.34,3.28,6.25h14.62v7.05c2.7-3.01,4.34-6.99,4.34-11.35,0-.94-.08-1.85-.22-2.75H15.49v.8Z"/>
              <path class="cls-15" d="M15.49,34.33c.81,2.24,1.92,4.34,3.28,6.25h14.62v7.05c2.7-3.01,4.34-6.99,4.34-11.35,0-.94-.08-1.85-.22-2.75H15.49v.8Z"/>
              <path class="cls-13" d="M64.92,29.97c-1.39,8.21-6.69,15.1-13.91,18.68,1.68.92,3.6,1.45,5.65,1.45,6.49,0,11.76-5.26,11.76-11.76,0-3.28-1.34-6.24-3.5-8.37Z"/>
              <path class="cls-2" d="M64.92,29.97c-2.12-2.1-5.04-3.39-8.26-3.39-4.78,0-8.9,2.86-10.74,6.96h14.54v7.05h-15.35c.67,3.48,2.88,6.41,5.89,8.07,7.22-3.58,12.52-10.47,13.91-18.68Z"/>
              <path class="cls-1" d="M64.92,29.97c-2.12-2.1-5.04-3.39-8.26-3.39-4.78,0-8.9,2.86-10.74,6.96h14.54v7.05h-15.35c.67,3.48,2.88,6.41,5.89,8.07,7.22-3.58,12.52-10.47,13.91-18.68Z"/>
              <path class="cls-9" d="M45.12,40.58h15.35v-7.05h-14.54c-.66,1.47-1.02,3.09-1.02,4.8,0,.77.07,1.52.21,2.24Z"/>
              <path class="cls-2" d="M45.12,40.58h15.35v-7.05h-14.54c-.66,1.47-1.02,3.09-1.02,4.8,0,.77.07,1.52.21,2.24Z"/>
              <path class="cls-7" d="M45.12,40.58h15.35v-7.05h-14.54c-.66,1.47-1.02,3.09-1.02,4.8,0,.77.07,1.52.21,2.24Z"/>
            </g>
          </g>
        </g>
      </g>
    </g>
  </g>
</svg>